# xmcd
# 
# Track frame offsets:
#     150
#     17075
#     31084
#     55340
#     74325
#     89336
#     110058
#     126100
#     141625
#     166257
# 
# Disc length: 2386
# 
# Revision: 5
# Processed by: cddbd v1.5.2PL0 Copyright (c) Steve Scherf et al.
# Submitted via: fre:ac v1.1beta1pre5
# 
DISCID=8c09500a
DTITLE=Buddy Guy - Rhythm and Blues  CD2 - BLUES
DYEAR=2013
DGENRE=Blues
TTITLE0=Meet Me in Chicago
TTITLE1=Too Damn Bad
TTITLE2=Evil Twin (ft Steven Tyler, Joe Perry and Brad Whitford)
TTITLE3=I Could Die Happy
TTITLE4=Never Gonna Change
TTITLE5=All That Makes Me Happy Is the Blues (ft The Muscle Shoals Horns)
TTITLE6=My Mama Loved Me
TTITLE7=Blues Don't Care (ft Gary Clark, Jr.)
TTITLE8=I Came Up Hard
TTITLE9=Poison Ivy
EXTD=
EXTT0=
EXTT1=
EXTT2=
EXTT3=
EXTT4=
EXTT5=
EXTT6=
EXTT7=
EXTT8=
EXTT9=
PLAYORDER=
